<?xml version="1.0" encoding="iso-8859-1"?>
<!-- Generator: Adobe Illustrator 18.0.0, SVG Export Plug-In . SVG Version: 6.00 Build 0)  -->
<!DOCTYPE svg PUBLIC "-//W3C//DTD SVG 1.1//EN" "http://www.w3.org/Graphics/SVG/1.1/DTD/svg11.dtd">
<svg version="1.1" id="Capa_1" xmlns="http://www.w3.org/2000/svg" xmlns:xlink="http://www.w3.org/1999/xlink" x="0px" y="0px"
	 viewBox="0 0 489.038 489.038" style="enable-background:new 0 0 489.038 489.038;" xml:space="preserve">
<path d="M428.323,7.134c-3.256-6.422-11.119-8.978-17.534-5.714C241.305,87.66,124.631,222.526,60.246,480.865
	c-0.7,2.824,0.635,5.763,3.142,7.245c2.507,1.472,5.665,1.172,7.847-0.75l39.803-35.147c3.631-3.206,6.201-7.455,7.342-12.168
	c38.843-163.03,131.229-318.328,278.151-400.328c-6.318,24.899-13.349,49.4-22.385,76.261c-0.082,0.252-0.18,0.505-0.26,0.757
	h-40.08c-7.343,0-13.284,5.95-13.284,13.284c0,7.334,5.941,13.284,13.284,13.284h30.653c-8.4,22.538-17.825,44.598-28.424,65.939
	h-66.924c-7.342,0-13.285,5.951-13.285,13.284c0,7.335,5.943,13.284,13.285,13.284h52.729
	c-20.968,36.506-52.794,79.11-93.444,89.952c-18.836,4.924-31.452,2.222-48.838-2.052c-7.098-1.774-14.276,2.549-16.052,9.647
	c-1.774,7.096,2.54,14.293,9.639,16.067c19.534,4.868,36.873,8.668,62.155,1.995C362.245,316.214,436.805,23.804,428.323,7.134z"/>
<g>
</g>
<g>
</g>
<g>
</g>
<g>
</g>
<g>
</g>
<g>
</g>
<g>
</g>
<g>
</g>
<g>
</g>
<g>
</g>
<g>
</g>
<g>
</g>
<g>
</g>
<g>
</g>
<g>
</g>
</svg>
