<?xml version="1.0" encoding="iso-8859-1"?>
<!-- Generator: Adobe Illustrator 16.0.0, SVG Export Plug-In . SVG Version: 6.00 Build 0)  -->
<!DOCTYPE svg PUBLIC "-//W3C//DTD SVG 1.1//EN" "http://www.w3.org/Graphics/SVG/1.1/DTD/svg11.dtd">
<svg version="1.1" id="Capa_1" xmlns="http://www.w3.org/2000/svg" xmlns:xlink="http://www.w3.org/1999/xlink" x="0px" y="0px"
	 width="75.822px" height="75.822px" viewBox="0 0 75.822 75.822" style="enable-background:new 0 0 75.822 75.822;"
	 xml:space="preserve">
<g>
	<g>
		<g>
			<path d="M74.944,36.29l-9.469-9.471c-0.003,0-0.003-0.003-0.006-0.003L41.017,2.363c0,0-0.003-0.002-0.003-0.003l-0.988-0.988
				c-1.167-1.169-3.063-1.169-4.23,0L34.809,2.36c0,0.001-0.003,0.001-0.003,0.001L10.352,26.817c-0.003,0-0.003,0.003-0.006,0.003
				l-9.469,9.471c-1.169,1.169-1.169,3.063,0,4.231c0.583,0.584,1.35,0.877,2.116,0.877s1.533-0.292,2.116-0.877l4.364-4.364
				l2.992,31.935c0,3.989,3.245,7.234,7.232,7.234h36.427c3.986,0,7.231-3.245,7.231-7.234l2.992-31.935l4.364,4.364
				c0.583,0.584,1.35,0.877,2.115,0.877c0.765,0,1.532-0.292,2.115-0.877C76.114,39.353,76.114,37.458,74.944,36.29z M56.125,69.34
				H19.698c-0.687,0-1.248-0.561-1.248-1.25l-2.993-37.918L37.911,7.718l22.454,22.454l-2.992,37.919
				C57.372,68.78,56.81,69.34,56.125,69.34z"/>
		</g>
		<g>
			<path d="M37.911,49.75c-6.528,0-11.839-5.311-11.839-11.839s5.311-11.839,11.839-11.839c6.527,0,11.839,5.311,11.839,11.839
				S44.438,49.75,37.911,49.75z M37.911,32.055c-3.229,0-5.854,2.628-5.854,5.854s2.625,5.854,5.854,5.854
				c3.229,0,5.854-2.627,5.854-5.854S41.139,32.055,37.911,32.055z"/>
		</g>
	</g>
</g>
<g>
</g>
<g>
</g>
<g>
</g>
<g>
</g>
<g>
</g>
<g>
</g>
<g>
</g>
<g>
</g>
<g>
</g>
<g>
</g>
<g>
</g>
<g>
</g>
<g>
</g>
<g>
</g>
<g>
</g>
</svg>
