<?xml version="1.0" standalone="no"?>
<!DOCTYPE svg PUBLIC "-//W3C//DTD SVG 20010904//EN"
 "http://www.w3.org/TR/2001/REC-SVG-20010904/DTD/svg10.dtd">
<svg version="1.0" xmlns="http://www.w3.org/2000/svg"
 width="570.000000pt" height="466.000000pt" viewBox="0 0 570.000000 466.000000"
 preserveAspectRatio="xMidYMid meet">
<metadata>
Created by potrace 1.16, written by Peter Selinger 2001-2019
</metadata>
<g transform="translate(0.000000,466.000000) scale(0.100000,-0.100000)"
fill="#000000" stroke="none">
<path d="M1045 4419 c-4 -6 -5 -12 -4 -13 2 -2 92 -79 199 -172 107 -93 231
-201 275 -239 45 -39 284 -247 533 -463 l452 -393 35 27 c20 15 34 28 33 29
-2 1 -230 188 -508 415 -278 228 -541 443 -585 479 -44 36 -155 127 -247 203
-92 76 -169 138 -172 138 -3 0 -8 -5 -11 -11z"/>
<path d="M4090 3871 c-311 -203 -678 -443 -817 -533 l-252 -163 32 -27 c18
-15 37 -26 43 -24 10 4 430 295 1250 866 358 249 330 228 318 240 -6 6 -206
-119 -574 -359z"/>
<path d="M2665 3207 c-97 -32 -190 -120 -225 -213 -23 -64 -24 -74 -7 -74 46
1 679 69 684 74 10 10 -45 92 -92 135 -69 64 -123 84 -230 88 -55 2 -105 -2
-130 -10z"/>
<path d="M3975 3009 c-49 -5 -250 -23 -445 -39 -838 -72 -1180 -101 -1585
-135 -236 -20 -454 -43 -482 -51 -77 -21 -127 -73 -144 -148 -11 -52 -10 -79
9 -230 44 -346 82 -641 102 -789 11 -84 27 -206 35 -272 28 -212 53 -276 128
-319 57 -34 108 -40 672 -86 270 -22 733 -61 1029 -85 511 -43 542 -45 598
-30 90 23 143 73 172 164 9 25 38 188 66 361 59 366 99 613 176 1090 30 190
55 365 55 390 0 83 -34 138 -106 171 -44 21 -124 23 -280 8z m-380 -233 c44
-19 75 -69 75 -122 0 -23 -9 -101 -21 -175 -11 -74 -47 -330 -80 -569 -103
-753 -108 -784 -154 -839 -14 -16 -46 -37 -70 -47 -53 -20 -67 -19 -765 51
-245 25 -519 51 -610 60 -184 17 -226 26 -258 55 -51 48 -63 104 -102 475 -11
110 -34 322 -50 472 -36 323 -37 386 -11 429 40 65 9 61 881 134 206 17 517
44 690 60 374 33 430 35 475 16z m515 -225 c92 -66 94 -192 4 -270 -73 -64
-159 -65 -226 -2 -35 32 -41 45 -45 88 -7 65 9 111 51 152 63 61 157 75 216
32z m-121 -667 c12 -15 21 -35 21 -46 0 -31 -27 -73 -55 -86 -37 -17 -59 -15
-89 9 -20 16 -26 29 -26 58 0 81 102 125 149 65z"/>
<path d="M3551 2532 c-5 -10 -62 -278 -126 -597 -68 -337 -124 -594 -135 -616
-23 -44 -58 -73 -108 -90 -42 -14 -618 -7 -988 12 -157 8 -222 8 -254 -1 -90
-24 -21 -38 385 -75 149 -14 387 -36 530 -50 431 -43 474 -40 520 39 24 42 44
152 95 521 11 83 40 293 65 468 25 175 45 335 45 357 0 44 -14 60 -29 32z"/>
<path d="M1825 927 c-2 -7 -11 -82 -19 -167 -9 -85 -19 -183 -22 -217 -7 -61
-6 -62 20 -69 14 -3 32 -4 39 -1 12 4 143 445 135 452 -2 1 -36 5 -76 8 -52 4
-74 3 -77 -6z"/>
<path d="M3551 773 c0 -10 28 -160 62 -333 l62 -315 45 -7 c24 -4 45 -7 46 -5
1 1 -1 149 -4 329 l-5 327 -56 6 c-31 3 -77 8 -103 11 -42 5 -48 4 -47 -13z"/>
</g>
</svg>
